<?xml version="1.0" encoding="utf-8"?>
<!-- Generator: Adobe Illustrator 15.1.0, SVG Export Plug-In . SVG Version: 6.00 Build 0)  -->
<!DOCTYPE svg PUBLIC "-//W3C//DTD SVG 1.1//EN" "http://www.w3.org/Graphics/SVG/1.1/DTD/svg11.dtd">
<svg version="1.1" id="Layer_1" xmlns="http://www.w3.org/2000/svg" xmlns:xlink="http://www.w3.org/1999/xlink" x="0px" y="0px"
	 width="500px" height="320px" viewBox="0 0 500 320" enable-background="new 0 0 500 320" xml:space="preserve">
<g id="Layer_1_1_">
	<g>
		<path fill="#FFFFFF" d="M481.466,73.449c-0.263,0-0.511,0-0.76,0.003c-1.682,0.005-3.361,0.042-5.043,0.122
			c-1.498,0.067-2.982,0.168-4.478,0.303c-1.374,0.131-2.766,0.289-4.135,0.49c-1.298,0.189-2.57,0.415-3.835,0.688
			c-0.481,0.104-0.974,0.214-1.452,0.331c-0.466,0.108-0.932,0.233-1.398,0.36c-3.21,0.869-6.385,2.074-9.146,3.939
			c-1.914,1.203-3.642,2.703-5.092,4.44c-1.5,1.746-2.71,3.737-3.64,5.842c-1.183,2.625-1.96,5.436-2.427,8.284
			c-0.276,1.624-0.47,3.258-0.594,4.896c-0.1,1.247-0.157,2.497-0.173,3.745c-0.025,0.562-0.025,1.123-0.03,1.689l-0.002,0.147
			c0,1.17,0.002,2.347,0.002,3.519c0.007,8.18,0.003,16.371,0,24.553c-0.002,7.802,0,15.594,0,23.395v23.386v23.394v9.356v5.851
			v3.509c0.882-0.002,1.763-0.006,2.648-0.027c1.664-0.023,3.332-0.094,5.005-0.196c3.66-0.211,7.312-0.613,10.903-1.41
			c3.182-0.658,6.327-1.628,9.208-3.129c2.233-1.113,4.327-2.533,6.108-4.296c1.778-1.69,3.242-3.708,4.374-5.896
			c1.283-2.396,2.153-5.007,2.729-7.648c0.389-1.723,0.665-3.471,0.854-5.229c0.188-1.694,0.295-3.402,0.338-5.104
			c0.028-0.783,0.032-1.558,0.037-2.34l0.003-81.683l-0.005-0.145V73.449L481.466,73.449z"/>
		<path fill="#FFFFFF" d="M412.174,112.369c-3.073-7.942-7.535-15.301-13.031-21.775c-5.37-6.538-11.753-12.198-18.908-16.727
			c-7.174-4.699-15.13-8.237-23.427-10.308c-3.394-0.913-6.841-1.574-10.319-2.023c-2.223-0.298-4.44-0.507-6.68-0.602
			c-1.357-0.053-2.717-0.073-4.072-0.096c-1.357,0.025-2.713,0.046-4.067,0.096c-9.153,0.383-18.34,2.33-26.823,5.894
			c-7.947,3.076-15.299,7.536-21.771,13.033c-6.539,5.363-12.203,11.755-16.739,18.912c-4.692,7.176-8.238,15.131-10.305,23.419
			c-0.904,3.393-1.576,6.844-2.018,10.323c-0.295,2.22-0.507,4.443-0.602,6.676c-0.059,1.356-0.082,2.712-0.101,4.071v82.428
			c0.884-0.001,1.772-0.005,2.645-0.026c5.332-0.07,10.7-0.4,15.927-1.606c3.185-0.658,6.314-1.628,9.202-3.129
			c2.234-1.116,4.337-2.531,6.111-4.296c1.775-1.693,3.24-3.708,4.369-5.899c1.293-2.392,2.149-5.004,2.735-7.647
			c0.389-1.724,0.657-3.471,0.851-5.229c0.185-1.694,0.292-3.39,0.336-5.102c0.012-0.784,0.031-1.556,0.033-2.341v-47.147
			c0.012-0.659,0.015-1.321,0.053-1.98c0.187-4.468,1.132-8.95,2.864-13.091c1.503-3.878,3.688-7.47,6.362-10.63
			c2.623-3.185,5.745-5.947,9.229-8.16c3.502-2.298,7.386-4.014,11.426-5.031c1.668-0.447,3.346-0.773,5.036-0.989
			c1.742-0.229,3.495-0.344,5.246-0.337c5.141-0.033,10.333,0.92,15.077,2.917c3.882,1.499,7.467,3.679,10.625,6.367
			c3.198,2.615,5.971,5.741,8.171,9.228c1.822,2.789,3.251,5.818,4.312,8.998c1.176,3.458,1.889,7.089,1.985,10.729
			c0.035,0.66,0.037,1.32,0.062,1.982v47.146c0.002,0.782,0.01,1.556,0.025,2.339c0.097,4.29,0.513,8.613,1.811,12.715
			c0.716,2.502,1.751,4.934,3.188,7.133c1.31,2.053,2.952,3.908,4.862,5.424c1.979,1.624,4.252,2.891,6.61,3.854
			c3.582,1.521,7.396,2.39,11.234,2.917c2.007,0.295,4.004,0.484,6.019,0.624c1.931,0.141,3.863,0.226,5.808,0.248
			c0.882,0.024,1.749,0.025,2.632,0.026v-82.428c-0.014-1.356-0.043-2.714-0.099-4.071
			C417.685,130.038,415.745,120.862,412.174,112.369"/>
		<path fill="#FFFFFF" d="M232.213,108.725c-0.058-5.068-0.324-10.208-1.845-15.049c-0.706-2.51-1.757-4.941-3.189-7.136
			c-1.306-2.06-2.95-3.909-4.854-5.425c-1.979-1.625-4.249-2.885-6.62-3.856c-3.573-1.519-7.39-2.388-11.23-2.911
			c-2.002-0.293-4.003-0.491-6.015-0.629c-1.933-0.138-3.868-0.217-5.801-0.245c-0.881-0.016-1.77-0.02-2.644-0.023v116.958
			c0.005,0.782,0.01,1.557,0.03,2.342c0.098,4.29,0.517,8.61,1.814,12.713c0.71,2.502,1.757,4.936,3.191,7.13
			c1.305,2.058,2.951,3.912,4.857,5.425c1.978,1.625,4.246,2.891,6.613,3.853c3.575,1.523,7.392,2.394,11.232,2.92
			c2.001,0.294,4.009,0.487,6.023,0.623c1.928,0.141,3.86,0.226,5.794,0.246c0.881,0.025,1.765,0.028,2.641,0.029v-3.51v-7.021
			v-17.545c0-7.803,0.005-15.591,0-23.394c0-7.8-0.002-15.59,0-23.388c0.005-7.8,0.021-15.589,0-23.395
			c-0.002-3.118-0.007-6.242,0-9.354C232.228,114.964,232.257,111.86,232.213,108.725"/>
		<path fill="#FFFFFF" d="M126.796,141.96c-0.008,0.662-0.016,1.317-0.046,1.98c-0.054,1.301-0.185,2.595-0.378,3.886
			c-0.451,3.144-1.272,6.23-2.484,9.167c-1.514,3.853-3.67,7.442-6.345,10.597c-2.604,3.189-5.724,5.941-9.207,8.141
			c-3.493,2.289-7.357,4.008-11.398,5.016c-1.651,0.441-3.331,0.768-5.024,0.99c-1.074,0.14-2.163,0.238-3.25,0.289
			c-0.654,0.026-1.32,0.034-1.981,0.049c-0.488-0.003-0.98-0.015-1.47-0.027c-0.967-0.026-1.936-0.106-2.899-0.207
			c-2.349-0.256-4.689-0.709-6.96-1.397c-2.97-0.847-5.83-2.066-8.495-3.61c-2.663-1.497-5.129-3.312-7.361-5.395
			c-2.249-2.051-4.267-4.365-5.951-6.894c-0.688-1.006-1.324-2.06-1.92-3.12c-0.608-1.069-1.172-2.163-1.641-3.299
			c-0.465-1.088-0.836-2.216-1.166-3.357c-0.281-0.957-0.534-1.92-0.747-2.896c-0.218-0.98-0.395-1.976-0.534-2.972
			c-0.143-1.008-0.247-2.025-0.31-3.046c-0.022-0.414-0.041-0.819-0.053-1.233c-0.013-0.26-0.017-0.519-0.02-0.779
			c0.001-0.159-0.001-0.317-0.001-0.469c0.009-0.662,0.026-1.325,0.049-1.989c0.185-4.465,1.132-8.939,2.87-13.089
			c1.504-3.874,3.683-7.463,6.365-10.624c2.615-3.192,5.735-5.958,9.228-8.162c3.498-2.293,7.379-4.02,11.424-5.034
			c1.66-0.443,3.346-0.77,5.037-0.99c1.744-0.225,3.494-0.338,5.25-0.338c4.113-0.019,8.269,0.588,12.181,1.885
			c3.186,0.975,6.22,2.397,9.026,4.175c2.792,1.724,5.365,3.804,7.65,6.18c2.309,2.347,4.333,4.986,5.927,7.849
			c0.66,1.146,1.257,2.332,1.82,3.534c0.578,1.209,1.124,2.44,1.473,3.729c0.242,0.846,0.401,1.722,0.549,2.597
			c0.131,0.75,0.258,1.491,0.36,2.234c0.105,0.768,0.188,1.538,0.25,2.308c0.068,0.79,0.127,1.582,0.153,2.37
			c0.006,0.327,0.021,0.652,0.022,0.973c0.006,0.202,0.007,0.405,0.008,0.612V141.96z M228.892,17.281
			c-1.512-1.844-3.32-3.445-5.338-4.726c-2.027-1.325-4.28-2.331-6.622-2.912c-0.958-0.258-1.931-0.447-2.92-0.57
			c-0.623-0.086-1.249-0.143-1.879-0.167c-0.382-0.019-0.768-0.026-1.146-0.032c-0.935,0.021-1.867,0.045-2.793,0.097
			c-6.282,0.354-12.468,2.13-18.292,4.614c-6.912,2.799-13.312,6.577-19.333,10.888c-6.354,4.449-12.284,9.497-17.796,14.974
			c-5.338,5.224-10.282,10.86-14.61,16.928c-1.614,2.223-3.15,4.502-4.587,6.842c-1.182,1.903-2.294,3.851-3.297,5.855
			c-0.416,0.807-0.8,1.629-1.19,2.444c-0.378-0.221-0.747-0.449-1.125-0.662c-0.746-0.437-1.503-0.861-2.27-1.277
			c-1.92-1.034-3.879-1.996-5.874-2.872c-2.671-1.191-5.425-2.235-8.219-3.105c-2.822-0.91-5.693-1.651-8.608-2.232
			c-2.951-0.604-5.942-1.04-8.943-1.292c-1.217-0.107-2.438-0.19-3.665-0.245c-0.767-0.03-1.534-0.058-2.306-0.069
			c-0.463-0.008-0.928-0.008-1.394-0.012c-1.355,0.017-2.712,0.038-4.063,0.104c-2.661,0.11-5.322,0.375-7.968,0.772
			c-6.424,0.923-12.755,2.615-18.781,5.092c-7.889,3.095-15.26,7.523-21.724,13.001c-6.53,5.336-12.169,11.724-16.676,18.862
			c-4.689,7.158-8.213,15.093-10.282,23.358c-0.915,3.388-1.582,6.828-2.023,10.303c-0.471,3.551-0.707,7.136-0.69,10.717
			c-0.009,2.167,0.079,4.333,0.254,6.491c0.139,1.777,0.333,3.54,0.593,5.307c0.25,1.74,0.555,3.472,0.927,5.193
			c0.353,1.707,0.767,3.4,1.24,5.078c0.188,0.666,0.379,1.333,0.586,1.993c0.201,0.658,0.414,1.318,0.632,1.97
			c0.764,2.34,1.569,4.666,2.509,6.933c0.77,1.885,1.629,3.729,2.548,5.544c0.917,1.803,1.893,3.569,2.941,5.307
			c1.032,1.73,2.138,3.417,3.306,5.06c0.464,0.655,0.938,1.305,1.421,1.954c0.301,0.398,0.607,0.803,0.917,1.192
			c0.188,0.252,0.372,0.485,0.558,0.719c-0.337,0.288-0.674,0.58-1.001,0.874c-0.665,0.597-1.308,1.207-1.939,1.84
			c-1.579,1.565-3.062,3.239-4.426,5.001c-1.842,2.34-3.476,4.841-4.865,7.486c-1.438,2.645-2.625,5.419-3.559,8.29
			c-0.98,2.904-1.689,5.912-2.104,8.943c-0.184,1.245-0.318,2.487-0.4,3.739c-0.092,1.268-0.142,2.535-0.137,3.803
			c-0.004,1.277,0.045,2.54,0.141,3.804c0.068,1.053,0.175,2.091,0.31,3.124c0.137,1.019,0.304,2.043,0.504,3.051
			c0.191,1.009,0.41,2.009,0.667,2.991c0.104,0.408,0.205,0.796,0.317,1.178c0.104,0.396,0.223,0.78,0.336,1.174
			c1.284,4.259,2.844,8.468,5.06,12.342c1.736,3.219,3.92,6.192,6.376,8.927c2.416,2.733,5.109,5.225,8.048,7.399
			c2.932,2.223,6.11,4.119,9.458,5.619c1.349,0.623,2.723,1.184,4.12,1.693c0.875,0.318,1.761,0.608,2.664,0.879
			c0.536,0.161,1.077,0.301,1.62,0.463l0.205,0.057l0.577,0.142l0.243,0.058l0.21,0.05l0.2,0.052l0.62,0.142l0.208,0.043
			l0.197,0.049l0.211,0.041l0.422,0.088l0.207,0.041l0.206,0.043l0.208,0.044l0.212,0.04l0.211,0.027l0.204,0.039l0.213,0.042
			l0.207,0.035l0.689,0.103l0.161,0.03l0.209,0.024l0.634,0.089l0.213,0.031l0.432,0.053l0.21,0.034l0.64,0.071l0.217,0.025
			l0.213,0.017l1.076,0.092l0.095,0.005l0.127,0.009l1.083,0.073l0.133,0.008l0.083,0.009c0.098,0.003,0.199,0.019,0.294,0.02
			c0.077,0.003,0.163,0.003,0.241,0.008c0.082,0.002,0.162,0.006,0.243,0.007c0.083,0.003,0.159,0.008,0.246,0.008
			c0.062,0.002,0.129,0.002,0.193,0.004l0.093,0.003c0.115,0.002,0.23,0.002,0.345,0.002c0.085,0.002,0.168,0.002,0.258,0.018
			c0.076,0,0.168,0,0.258,0.002h0.257h0.201h71.523c0.548,0.006,1.095,0.009,1.641,0.02c3.415,0.083,6.852,0.461,10.146,1.431
			c2.396,0.631,4.723,1.572,6.836,2.878c1.715,1.031,3.292,2.297,4.619,3.786c1.325,1.438,2.409,3.082,3.231,4.851
			c0.897,1.842,1.494,3.833,1.831,5.854c0.098,0.533,0.171,1.073,0.235,1.602c0.048,0.419,0.087,0.84,0.118,1.252
			c0.027,0.422,0.049,0.854,0.073,1.272c0.984-0.736,1.971-1.469,2.927-2.248c1.799-1.448,3.49-3.027,5.064-4.722
			c2.612-2.76,4.896-5.844,6.656-9.215c2.046-3.762,3.422-7.912,3.92-12.176c0.554-3.932,0.357-7.951-0.578-11.803
			c-0.834-3.74-2.361-7.312-4.483-10.492c-2.05-3.205-4.688-6.015-7.766-8.259c-3.116-2.351-6.698-4.112-10.458-5.073
			c-1.111-0.318-2.244-0.556-3.391-0.744c-0.874-0.135-1.761-0.249-2.646-0.318c-0.901-0.062-1.812-0.087-2.72-0.103H57.703
			c-0.177-0.003-0.347-0.005-0.522-0.012c-1.172-0.05-2.343-0.304-3.427-0.765c-1.021-0.384-1.96-0.954-2.793-1.66
			c-0.833-0.686-1.558-1.498-2.14-2.422c-0.604-0.922-1.055-1.931-1.323-2.999c-0.108-0.431-0.198-0.877-0.257-1.316
			c-0.037-0.285-0.059-0.568-0.076-0.848c-0.006-0.181-0.008-0.364-0.01-0.535c0.002-0.168,0.004-0.338,0.009-0.516
			c0.02-0.328,0.049-0.669,0.098-1.002c0.115-0.809,0.326-1.606,0.636-2.38c0.384-0.991,0.937-1.928,1.62-2.759
			c0.662-0.819,1.454-1.548,2.349-2.125c0.892-0.61,1.882-1.07,2.918-1.36c0.418-0.123,0.852-0.217,1.289-0.278
			c0.269-0.045,0.547-0.085,0.829-0.1c0.166-0.021,0.344-0.024,0.512-0.029l0.289-0.003H86.87h0.119h0.099h0.107
			c0.054,0.003,0.119,0.003,0.181,0.003c1.357-0.016,2.717-0.044,4.073-0.094c2.675-0.11,5.342-0.383,7.983-0.783
			c6.449-0.918,12.797-2.624,18.839-5.11c7.907-3.094,15.288-7.535,21.774-13.029c6.547-5.36,12.203-11.763,16.722-18.912
			c4.702-7.185,8.238-15.135,10.314-23.425c0.911-3.393,1.574-6.841,2.021-10.323c0.471-3.561,0.716-7.156,0.696-10.743
			c0.002-2.459-0.119-4.915-0.368-7.354c-0.193-2.028-0.476-4.042-0.841-6.05c-0.357-1.992-0.787-3.971-1.299-5.932
			c-0.504-1.959-1.076-3.898-1.726-5.815c-0.256-0.754-0.521-1.52-0.801-2.273c-0.28-0.754-0.574-1.499-0.869-2.254
			c-1.072-2.731-2.167-5.456-3.467-8.086c-1.047-2.184-2.235-4.31-3.502-6.375c-1.263-2.07-2.609-4.083-4.044-6.023
			c-1.428-1.944-2.947-3.824-4.547-5.628c-0.632-0.721-1.285-1.432-1.951-2.13c-0.411-0.442-0.832-0.875-1.253-1.302
			c-0.254-0.258-0.512-0.516-0.771-0.765c0.384-0.453,0.761-0.899,1.15-1.348c0.797-0.924,1.611-1.829,2.441-2.727
			c2.194-2.382,4.482-4.676,6.854-6.882c3.299-3.092,6.763-6.008,10.396-8.689c3.569-2.671,7.308-5.114,11.247-7.218
			c3.632-1.979,7.441-3.669,11.434-4.733c1.466-0.412,2.966-0.74,4.479-0.968c0.906-0.142,1.823-0.246,2.74-0.296
			c0.54-0.026,1.081-0.039,1.617-0.052c0.033,0.025,0.061,0.044,0.087,0.068c0.053,0.041,0.114,0.079,0.166,0.118
			c0.139,0.111,0.277,0.21,0.421,0.31c0.184,0.133,0.371,0.269,0.562,0.393c0.187,0.129,0.389,0.255,0.58,0.378
			c0.192,0.123,0.394,0.241,0.587,0.36c0.079,0.049,0.162,0.093,0.237,0.141c0.084,0.045,0.164,0.092,0.239,0.139
			c0.05,0.028,0.106,0.06,0.154,0.084c0.043,0.021,0.08,0.044,0.123,0.067c0.043,0.025,0.085,0.046,0.13,0.073
			c0.074,0.037,0.148,0.075,0.227,0.12c0.208,0.113,0.419,0.214,0.628,0.323c0.18,0.088,0.353,0.169,0.533,0.26
			c0.175,0.083,0.355,0.164,0.537,0.241c0.183,0.087,0.37,0.156,0.547,0.234c0.083,0.025,0.152,0.062,0.227,0.087
			c0.073,0.025,0.146,0.055,0.229,0.083c0.124,0.049,0.258,0.099,0.397,0.141c0.106,0.038,0.219,0.071,0.336,0.103
			c0.111,0.037,0.227,0.071,0.331,0.1c0.118,0.038,0.228,0.063,0.344,0.099c0.048,0.012,0.092,0.023,0.134,0.037
			c0.048,0.015,0.094,0.025,0.134,0.044c0.173,0.049,0.34,0.098,0.509,0.145c0.137,0.041,0.274,0.086,0.417,0.125
			c0.137,0.039,0.279,0.077,0.417,0.11c0.139,0.042,0.282,0.073,0.425,0.111c0.053,0.009,0.115,0.024,0.168,0.034
			c0.062,0.013,0.118,0.025,0.177,0.035c0.33,0.065,0.664,0.123,1.003,0.172c0.273,0.046,0.564,0.08,0.847,0.115
			c0.284,0.037,0.564,0.062,0.85,0.084c0.287,0.024,0.58,0.037,0.865,0.049c0.118,0.002,0.233,0.004,0.347,0.008h0.217h0.135
			c0.38,0,0.766,0,1.151-0.015c0.749-0.025,1.502-0.089,2.253-0.2c1.821-0.249,3.621-0.721,5.323-1.417
			c2.242-0.875,4.329-2.125,6.16-3.688c1.849-1.515,3.444-3.334,4.725-5.366c1.328-2.035,2.324-4.291,2.915-6.641
			c0.254-0.962,0.447-1.945,0.571-2.926c0.13-1.005,0.195-2.021,0.192-3.037c0.019-2.973-0.528-5.986-1.691-8.73
			C231.718,21.188,230.451,19.112,228.892,17.281"/>
	</g>
	<g>
		<path fill="#FFFFFF" d="M194.499,250.152h17.013l6.358,26.547c1.681,6.452,2.806,12.719,4.487,19.259h0.375
			c1.681-6.54,2.896-12.807,4.482-19.259l6.173-26.547h16.455l-17.95,60.765H212.45L194.499,250.152z"/>
		<rect x="255.633" y="250.152" fill="#FFFFFF" width="16.074" height="60.765"/>
		<g>
			<path fill="#FFFFFF" d="M290.595,292.315c4.298,3.454,9.721,5.888,14.21,5.888c4.856,0,6.916-1.589,6.916-4.303
				c0-2.896-3.088-3.83-8.228-5.888l-7.574-3.18c-6.544-2.614-12.246-8.134-12.246-16.92c0-10.376,9.349-18.883,22.622-18.883
				c6.919,0,14.585,2.62,20.194,8.133l-8.039,10.096c-4.113-2.896-7.666-4.392-12.152-4.392c-3.925,0-6.357,1.398-6.357,4.111
				c0,2.901,3.462,3.93,8.976,6.076l7.386,2.896c7.575,2.995,11.873,8.229,11.873,16.643c0,10.283-8.606,19.447-23.748,19.447
				c-7.663,0-16.448-2.809-22.996-8.698L290.595,292.315z"/>
		</g>
		<rect x="337.89" y="250.152" fill="#FFFFFF" width="16.077" height="60.765"/>
		<path fill="#FFFFFF" d="M404.818,280.254c0-11.031-4.483-17.387-11.777-17.387c-7.289,0-11.778,6.355-11.778,17.387
			c0,11.033,4.49,17.946,11.778,17.946C400.335,298.2,404.818,291.287,404.818,280.254 M364.808,280.254
			c0-20.003,11.407-31.222,28.233-31.222c16.828,0,28.232,11.308,28.232,31.222c0,20.004-11.404,31.784-28.232,31.784
			C376.215,312.04,364.808,300.26,364.808,280.254"/>
		<path fill="#FFFFFF" d="M432.113,250.152h16.453l13.462,27.113l5.797,13.647h0.37c-0.749-6.547-2.055-15.707-2.055-23.187v-17.574
			h15.332v60.765h-16.452l-13.463-27.205l-5.799-13.556h-0.371c0.75,6.918,2.054,15.707,2.054,23.188v17.573h-15.328V250.152
			L432.113,250.152z"/>
	</g>
	<path fill="#FFFFFF" d="M461.869,25.463c-6.127,0-11.09,4.963-11.09,11.089c0,6.126,4.963,11.09,11.09,11.09
		c6.125,0,11.09-4.963,11.09-11.09C472.959,30.426,467.997,25.463,461.869,25.463"/>
	<path fill="#FFFFFF" d="M461.869,51.068c-7.995,0-14.518-6.518-14.518-14.517c0-7.998,6.522-14.518,14.518-14.518
		c8,0,14.517,6.521,14.517,14.518C476.388,44.55,469.869,51.068,461.869,51.068 M489.293,17.023h-10.476
		c-5.453-6.113-7.167-8.149-9.254-8.149h-15.029c-2.089,0-3.771,2.037-9.254,8.149h-2.257v-2.717h-5.771v2.717h-2.291
		c-2.989,0-5.688,2.243-5.688,5.215v29.884c0,2.971,2.699,5.655,5.688,5.655h54.333c2.986,0,5.182-2.683,5.182-5.655V22.238
		C494.475,19.266,492.279,17.023,489.293,17.023"/>
</g>
</svg>
